Coordinates
version=1
nRows=32
nColumns=12
inDegrees=yes

Units are S.I. units (second, meters, Newtons, ...)
Angles are in degrees

endheader
time	SC_y	SC_z	SC_x	AC_y	AC_z	AC_x	GH_y	GH_z	GH_yy	EL_x	PS_y
       0.0              -45.35          -2.39           30.9          67.54          8.651          15.69          -27.1         -19.66          168.7          94.56          61.46
 0.0003186              -45.35         -2.385          30.91          67.54           8.65          15.69         -27.08         -19.65          168.7          94.56          61.46
 0.0006371              -45.35         -2.379          30.91          67.54          8.649          15.68         -27.06         -19.64          168.7          94.55          61.45
 0.0009557              -45.35         -2.373          30.91          67.54          8.648          15.68         -27.04         -19.64          168.6          94.55          61.44
  0.001274              -45.35         -2.367          30.92          67.54          8.647          15.68         -27.02         -19.63          168.6          94.55          61.44
  0.001593              -45.36          -2.36          30.92          67.53          8.645          15.67          -27.0         -19.62          168.6          94.55          61.43
  0.001911              -45.36         -2.352          30.93          67.53          8.644          15.67         -26.98         -19.61          168.6          94.55          61.42
   0.00223              -45.36         -2.345          30.93          67.53          8.643          15.67         -26.96          -19.6          168.6          94.55          61.41
  0.002548              -45.36         -2.336          30.94          67.53          8.641          15.66         -26.93         -19.58          168.6          94.54           61.4
  0.002867              -45.36         -2.327          30.94          67.52           8.64          15.66          -26.9         -19.57          168.5          94.54          61.39
  0.003186              -45.37         -2.317          30.95          67.52          8.638          15.65         -26.87         -19.56          168.5          94.54          61.38
  0.003504              -45.37         -2.307          30.95          67.52          8.636          15.65         -26.84         -19.54          168.5          94.54          61.37
  0.003823              -45.37         -2.296          30.96          67.51          8.634          15.64         -26.81         -19.53          168.5          94.53          61.36
  0.004141              -45.37         -2.283          30.97          67.51          8.632          15.64         -26.77         -19.51          168.5          94.53          61.35
   0.00446              -45.38          -2.27          30.98          67.51          8.629          15.63         -26.73         -19.49          168.4          94.53          61.34
  0.004778              -45.38         -2.256          30.98           67.5          8.627          15.62         -26.69         -19.47          168.4          94.52          61.32
  0.005097              -45.38          -2.24          30.99           67.5          8.624          15.62         -26.64         -19.45          168.4          94.52           61.3
  0.005415              -45.39         -2.223           31.0          67.49          8.621          15.61         -26.59         -19.43          168.3          94.52          61.29
  0.005734              -45.39         -2.205          31.02          67.48          8.618           15.6         -26.53          -19.4          168.3          94.51          61.27
  0.006053               -45.4         -2.185          31.03          67.48          8.614          15.59         -26.47         -19.38          168.3          94.51          61.25
  0.006371               -45.4         -2.162          31.04          67.47           8.61          15.58          -26.4         -19.35          168.2           94.5          61.22
   0.00669              -45.41         -2.138          31.06          67.46          8.606          15.57         -26.33         -19.31          168.2           94.5           61.2
  0.007008              -45.41         -2.111          31.07          67.45          8.601          15.55         -26.25         -19.28          168.1          94.49          61.17
  0.007327              -45.42         -2.081          31.09          67.44          8.595          15.54         -26.16         -19.23          168.0          94.48          61.14
  0.007645              -45.43         -2.048          31.11          67.43          8.589          15.52         -26.06         -19.19          168.0          94.47           61.1
  0.007964              -45.43          -2.01          31.13          67.42          8.583           15.5         -25.94         -19.14          167.9          94.47          61.06
  0.008282              -45.44         -1.969          31.16          67.41          8.575          15.48         -25.82         -19.08          167.8          94.46          61.02
  0.008601              -45.45         -1.922          31.18          67.39          8.567          15.46         -25.68         -19.02          167.7          94.44          60.97
   0.00892              -45.47         -1.869          31.22          67.38          8.557          15.44         -25.52         -18.94          167.6          94.43          60.92
  0.009238              -45.48         -1.809          31.25          67.36          8.546          15.41         -25.33         -18.86          167.5          94.42          60.85
  0.009557               -45.5          -1.74          31.29          67.33          8.534          15.37         -25.13         -18.77          167.3           94.4          60.78
  0.009875              -45.51         -1.662          31.34          67.31           8.52          15.34         -24.89         -18.66          167.2          94.38           60.7
